<svg width="1200" height="630" viewBox="0 0 1200 630" fill="none" xmlns="http://www.w3.org/2000/svg">
  <rect width="1200" height="630" fill="#082F49"/>
  <circle cx="130" cy="80" r="330" fill="#22D3EE" fill-opacity="0.36"/>
  <circle cx="1040" cy="120" r="290" fill="#A78BFA" fill-opacity="0.28"/>
  <circle cx="620" cy="680" r="370" fill="#06B6D4" fill-opacity="0.18"/>

  <g opacity="0.20">
    <path d="M0 120H1200" stroke="white"/>
    <path d="M0 240H1200" stroke="white"/>
    <path d="M0 360H1200" stroke="white"/>
    <path d="M0 480H1200" stroke="white"/>
    <path d="M120 0V630" stroke="white"/>
    <path d="M240 0V630" stroke="white"/>
    <path d="M360 0V630" stroke="white"/>
    <path d="M480 0V630" stroke="white"/>
    <path d="M600 0V630" stroke="white"/>
    <path d="M720 0V630" stroke="white"/>
    <path d="M840 0V630" stroke="white"/>
    <path d="M960 0V630" stroke="white"/>
    <path d="M1080 0V630" stroke="white"/>
  </g>

  <rect x="90" y="88" width="1020" height="454" rx="42" fill="white" fill-opacity="0.10" stroke="white" stroke-opacity="0.18"/>

  <rect x="140" y="140" width="96" height="96" rx="28" fill="url(#paint0_linear)"/>
  <path d="M165 208V168H177L211 194V168H223V208H211L177 182V208H165Z" fill="#020617"/>

  <text x="140" y="306" fill="#CFFAFE" font-family="Arial, Helvetica, sans-serif" font-size="28" font-weight="700" letter-spacing="5">
    PT NEXUS STUDIO UTAMA
  </text>

  <text x="140" y="378" fill="white" font-family="Arial, Helvetica, sans-serif" font-size="54" font-weight="800">
    Professional Software, Web,
  </text>

  <text x="140" y="440" fill="white" font-family="Arial, Helvetica, sans-serif" font-size="54" font-weight="800">
    and Digital Solutions
  </text>

  <text x="140" y="500" fill="#BAE6FD" font-family="Arial, Helvetica, sans-serif" font-size="26">
    Software • Website • Digital Product Support
  </text>

  <defs>
    <linearGradient id="paint0_linear" x1="140" y1="140" x2="236" y2="236" gradientUnits="userSpaceOnUse">
      <stop stop-color="#67E8F9"/>
      <stop offset="1" stop-color="#A78BFA"/>
    </linearGradient>
  </defs>
</svg>
